<?xml version="1.0" encoding="UTF-8"?>
<svg width="2335px" height="736px" viewBox="0 0 2335 736" version="1.1" xmlns="http://www.w3.org/2000/svg" xmlns:xlink="http://www.w3.org/1999/xlink">
    <title>SSDIQ</title>
    <g id="SSDIQ" stroke="none" stroke-width="1" fill="none" fill-rule="evenodd">
        <g id="Group-2" transform="translate(33.000000, 48.000000)">
            <rect id="Rectangle-Copy-8" fill="#1A3345" x="1366" y="460" width="100" height="100" rx="5"></rect>
            <rect id="Rectangle-Copy-8" fill="#1A3345" x="1244" y="460" width="100" height="100" rx="5"></rect>
            <rect id="Rectangle-Copy-8" fill="#1A3345" x="1488" y="345" width="100" height="100" rx="5"></rect>
            <rect id="Rectangle-Copy-8" fill="#1A3345" x="1488" y="230" width="100" height="100" rx="5"></rect>
            <rect id="Rectangle-Copy-8" fill="#1A3345" x="1488" y="115" width="100" height="100" rx="5"></rect>
            <rect id="Rectangle-Copy-8" fill="#1A3345" x="1366" y="0" width="100" height="100" rx="5"></rect>
            <rect id="Rectangle-Copy-8" fill="#1A3345" x="1244" y="0" width="100" height="100" rx="5"></rect>
            <path d="M1924,0 C2078.63973,0 2204,125.36027 2204,280 C2204,434.63973 2078.63973,560 1924,560 C1769.36027,560 1644,434.63973 1644,280 C1644,125.36027 1769.36027,0 1924,0 Z M1924,90 C1819.0659,90 1734,175.065898 1734,280 C1734,384.934102 1819.0659,470 1924,470 C2028.9341,470 2114,384.934102 2114,280 C2114,175.065898 2028.9341,90 1924,90 Z" id="Combined-Shape" fill="#008FC9"></path>
            <rect id="Rectangle-Copy-8" fill="#1A3345" x="805" y="460" width="100" height="100" rx="5"></rect>
            <rect id="Rectangle-Copy-8" fill="#1A3345" x="683" y="460" width="100" height="100" rx="5"></rect>
            <rect id="Rectangle-Copy-8" fill="#1A3345" x="561" y="460" width="100" height="100" rx="5"></rect>
            <rect id="Rectangle-Copy-8" fill="#1A3345" x="927" y="345" width="100" height="100" rx="5"></rect>
            <rect id="Rectangle-Copy-8" fill="#1A3345" x="805" y="230" width="100" height="100" rx="5"></rect>
            <rect id="Rectangle-Copy-8" fill="#1A3345" x="683" y="230" width="100" height="100" rx="5"></rect>
            <rect id="Rectangle-Copy-8" fill="#1A3345" x="561" y="230" width="100" height="100" rx="5"></rect>
            <rect id="Rectangle-Copy-8" fill="#1A3345" x="561" y="115" width="100" height="100" rx="5"></rect>
            <rect id="Rectangle-Copy-8" fill="#1A3345" x="927" y="0" width="100" height="100" rx="5"></rect>
            <rect id="Rectangle-Copy-8" fill="#1A3345" x="805" y="0" width="100" height="100" rx="5"></rect>
            <rect id="Rectangle-Copy-8" fill="#1A3345" x="683" y="0" width="100" height="100" rx="5"></rect>
            <rect id="Rectangle-Copy-8" fill="#1A3345" x="244" y="460" width="100" height="100" rx="5"></rect>
            <rect id="Rectangle-Copy-8" fill="#1A3345" x="122" y="460" width="100" height="100" rx="5"></rect>
            <rect id="Rectangle-Copy-8" fill="#1A3345" x="0" y="460" width="100" height="100" rx="5"></rect>
            <rect id="Rectangle-Copy-8" fill="#1A3345" x="366" y="345" width="100" height="100" rx="5"></rect>
            <rect id="Rectangle-Copy-8" fill="#1A3345" x="244" y="230" width="100" height="100" rx="5"></rect>
            <rect id="Rectangle-Copy-8" fill="#1A3345" x="122" y="230" width="100" height="100" rx="5"></rect>
            <rect id="Rectangle-Copy-8" fill="#1A3345" x="0" y="230" width="100" height="100" rx="5"></rect>
            <rect id="Rectangle-Copy-8" fill="#1A3345" x="0" y="115" width="100" height="100" rx="5"></rect>
            <rect id="Rectangle-Copy-8" fill="#1A3345" x="366" y="0" width="100" height="100" rx="5"></rect>
            <rect id="Rectangle-Copy-8" fill="#1A3345" x="244" y="0" width="100" height="100" rx="5"></rect>
            <rect id="Rectangle-Copy-8" fill="#1A3345" x="122" y="0" width="100" height="100" rx="5"></rect>
            <rect id="Rectangle-Copy-8" fill="#1A3345" x="1366" y="460" width="100" height="100" rx="5"></rect>
            <rect id="Rectangle-Copy-8" fill="#1A3345" x="1244" y="460" width="100" height="100" rx="5"></rect>
            <rect id="Rectangle-Copy-8" fill="#1A3345" x="1488" y="345" width="100" height="100" rx="5"></rect>
            <rect id="Rectangle-Copy-8" fill="#1A3345" x="1488" y="230" width="100" height="100" rx="5"></rect>
            <rect id="Rectangle-Copy-8" fill="#1A3345" x="1488" y="115" width="100" height="100" rx="5"></rect>
            <rect id="Rectangle-Copy-8" fill="#1A3345" x="1366" y="0" width="100" height="100" rx="5"></rect>
            <rect id="Rectangle-Copy-8" fill="#1A3345" x="1244" y="0" width="100" height="100" rx="5"></rect>
            <rect id="Rectangle-Copy-8" fill="#008FC9" x="1122" y="0" width="100" height="560" rx="5"></rect>
            <rect id="Rectangle-Copy-8" fill="#1A3345" x="805" y="460" width="100" height="100" rx="5"></rect>
            <rect id="Rectangle-Copy-8" fill="#1A3345" x="683" y="460" width="100" height="100" rx="5"></rect>
            <rect id="Rectangle-Copy-8" fill="#1A3345" x="561" y="460" width="100" height="100" rx="5"></rect>
            <rect id="Rectangle-Copy-8" fill="#1A3345" x="927" y="345" width="100" height="100" rx="5"></rect>
            <rect id="Rectangle-Copy-8" fill="#1A3345" x="805" y="230" width="100" height="100" rx="5"></rect>
            <rect id="Rectangle-Copy-8" fill="#1A3345" x="683" y="230" width="100" height="100" rx="5"></rect>
            <rect id="Rectangle-Copy-8" fill="#1A3345" x="561" y="230" width="100" height="100" rx="5"></rect>
            <rect id="Rectangle-Copy-8" fill="#1A3345" x="561" y="115" width="100" height="100" rx="5"></rect>
            <rect id="Rectangle-Copy-8" fill="#1A3345" x="927" y="0" width="100" height="100" rx="5"></rect>
            <rect id="Rectangle-Copy-8" fill="#1A3345" x="805" y="0" width="100" height="100" rx="5"></rect>
            <rect id="Rectangle-Copy-8" fill="#1A3345" x="683" y="0" width="100" height="100" rx="5"></rect>
            <rect id="Rectangle-Copy-8" fill="#1A3345" x="244" y="460" width="100" height="100" rx="5"></rect>
            <rect id="Rectangle-Copy-8" fill="#1A3345" x="122" y="460" width="100" height="100" rx="5"></rect>
            <rect id="Rectangle-Copy-8" fill="#1A3345" x="0" y="460" width="100" height="100" rx="5"></rect>
            <rect id="Rectangle-Copy-8" fill="#1A3345" x="366" y="345" width="100" height="100" rx="5"></rect>
            <rect id="Rectangle-Copy-8" fill="#1A3345" x="244" y="230" width="100" height="100" rx="5"></rect>
            <rect id="Rectangle-Copy-8" fill="#1A3345" x="122" y="230" width="100" height="100" rx="5"></rect>
            <rect id="Rectangle-Copy-8" fill="#1A3345" x="0" y="230" width="100" height="100" rx="5"></rect>
            <rect id="Rectangle-Copy-8" fill="#1A3345" x="0" y="115" width="100" height="100" rx="5"></rect>
            <rect id="Rectangle-Copy-8" fill="#1A3345" x="366" y="0" width="100" height="100" rx="5"></rect>
            <rect id="Rectangle-Copy-8" fill="#1A3345" x="244" y="0" width="100" height="100" rx="5"></rect>
            <rect id="Rectangle-Copy-8" fill="#1A3345" x="122" y="0" width="100" height="100" rx="5"></rect>
        </g>
        <rect id="Rectangle" fill="#008FC9" transform="translate(2183.500000, 585.000000) rotate(-45.000000) translate(-2183.500000, -585.000000) " x="2145" y="445" width="77" height="280" rx="38.5"></rect>
    </g>
</svg>